<svg width="196" height="122" viewBox="0 0 196 122" fill="none" xmlns="http://www.w3.org/2000/svg">
<rect width="196" height="122" fill="white"/>
<path d="M104.761 70V50.3636H107.778V70H104.761ZM106.295 47.0909C105.707 47.0909 105.2 46.8906 104.774 46.4901C104.357 46.0895 104.148 45.608 104.148 45.0455C104.148 44.483 104.357 44.0014 104.774 43.6009C105.2 43.2003 105.707 43 106.295 43C106.884 43 107.386 43.2003 107.804 43.6009C108.23 44.0014 108.443 44.483 108.443 45.0455C108.443 45.608 108.23 46.0895 107.804 46.4901C107.386 46.8906 106.884 47.0909 106.295 47.0909ZM121.23 77.7727C119.773 77.7727 118.52 77.5852 117.472 77.2102C116.424 76.8438 115.55 76.358 114.851 75.7528C114.161 75.1563 113.611 74.517 113.202 73.8352L115.605 72.1477C115.878 72.5057 116.223 72.9148 116.641 73.375C117.059 73.8438 117.63 74.2486 118.354 74.5895C119.087 74.9389 120.046 75.1136 121.23 75.1136C122.816 75.1136 124.124 74.7301 125.155 73.9631C126.186 73.196 126.702 71.9943 126.702 70.358V66.3693H126.446C126.225 66.7273 125.909 67.1705 125.5 67.6989C125.1 68.2188 124.52 68.6832 123.762 69.0923C123.012 69.4929 121.998 69.6932 120.719 69.6932C119.134 69.6932 117.711 69.3182 116.449 68.5682C115.196 67.8182 114.203 66.7273 113.471 65.2955C112.746 63.8636 112.384 62.125 112.384 60.0795C112.384 58.0682 112.738 56.3168 113.445 54.8253C114.152 53.3253 115.137 52.1662 116.398 51.348C117.659 50.5213 119.117 50.108 120.77 50.108C122.049 50.108 123.063 50.321 123.813 50.7472C124.571 51.1648 125.151 51.642 125.551 52.179C125.961 52.7074 126.276 53.142 126.498 53.483H126.804V50.3636H129.719V70.5625C129.719 72.25 129.336 73.6222 128.569 74.679C127.81 75.7443 126.787 76.5241 125.5 77.0185C124.222 77.5213 122.799 77.7727 121.23 77.7727ZM121.128 66.983C122.338 66.983 123.361 66.706 124.196 66.152C125.032 65.598 125.667 64.8011 126.101 63.7614C126.536 62.7216 126.753 61.4773 126.753 60.0284C126.753 58.6136 126.54 57.3651 126.114 56.2827C125.688 55.2003 125.057 54.3523 124.222 53.7386C123.387 53.125 122.355 52.8182 121.128 52.8182C119.85 52.8182 118.784 53.142 117.932 53.7898C117.088 54.4375 116.453 55.3068 116.027 56.3977C115.61 57.4886 115.401 58.6989 115.401 60.0284C115.401 61.392 115.614 62.598 116.04 63.6463C116.475 64.6861 117.114 65.5043 117.958 66.1009C118.81 66.6889 119.867 66.983 121.128 66.983ZM135.242 70V50.3636H138.259V70H135.242ZM136.776 47.0909C136.188 47.0909 135.681 46.8906 135.255 46.4901C134.837 46.0895 134.628 45.608 134.628 45.0455C134.628 44.483 134.837 44.0014 135.255 43.6009C135.681 43.2003 136.188 43 136.776 43C137.364 43 137.867 43.2003 138.284 43.6009C138.711 44.0014 138.924 44.483 138.924 45.0455C138.924 45.608 138.711 46.0895 138.284 46.4901C137.867 46.8906 137.364 47.0909 136.776 47.0909ZM152.325 50.3636V52.9205H142.148V50.3636H152.325ZM145.114 45.6591H148.131V64.375C148.131 65.2273 148.255 65.8665 148.502 66.2926C148.758 66.7102 149.082 66.9915 149.474 67.1364C149.874 67.2727 150.296 67.3409 150.739 67.3409C151.072 67.3409 151.344 67.3239 151.558 67.2898C151.771 67.2472 151.941 67.2131 152.069 67.1875L152.683 69.8977C152.478 69.9744 152.192 70.0511 151.826 70.1278C151.46 70.2131 150.995 70.2557 150.433 70.2557C149.58 70.2557 148.745 70.0724 147.927 69.706C147.117 69.3395 146.444 68.7812 145.907 68.0312C145.379 67.2812 145.114 66.3352 145.114 65.1932V45.6591ZM162.641 70.4602C161.397 70.4602 160.268 70.2259 159.254 69.7571C158.239 69.2798 157.434 68.5938 156.837 67.6989C156.241 66.7955 155.942 65.7045 155.942 64.4261C155.942 63.3011 156.164 62.3892 156.607 61.6903C157.05 60.983 157.643 60.429 158.384 60.0284C159.126 59.6278 159.944 59.3295 160.839 59.1335C161.742 58.929 162.65 58.767 163.562 58.6477C164.755 58.4943 165.722 58.3793 166.464 58.3026C167.214 58.2173 167.759 58.0767 168.1 57.8807C168.45 57.6847 168.624 57.3437 168.624 56.858V56.7557C168.624 55.4943 168.279 54.5142 167.589 53.8153C166.907 53.1165 165.871 52.767 164.482 52.767C163.042 52.767 161.913 53.0824 161.094 53.7131C160.276 54.3437 159.701 55.017 159.369 55.733L156.505 54.7102C157.016 53.517 157.698 52.5881 158.55 51.9233C159.411 51.25 160.349 50.7812 161.363 50.517C162.386 50.2443 163.391 50.108 164.38 50.108C165.011 50.108 165.735 50.1847 166.553 50.3381C167.38 50.483 168.177 50.7855 168.944 51.2457C169.719 51.706 170.363 52.4006 170.874 53.3295C171.386 54.2585 171.641 55.5028 171.641 57.0625V70H168.624V67.3409H168.471C168.266 67.767 167.925 68.223 167.448 68.7088C166.971 69.1946 166.336 69.608 165.543 69.9489C164.751 70.2898 163.783 70.4602 162.641 70.4602ZM163.102 67.75C164.295 67.75 165.3 67.5156 166.119 67.0469C166.945 66.5781 167.567 65.973 167.985 65.2315C168.411 64.4901 168.624 63.7102 168.624 62.892V60.1307C168.496 60.2841 168.215 60.4247 167.781 60.5526C167.354 60.6719 166.86 60.7784 166.298 60.8722C165.744 60.9574 165.202 61.0341 164.674 61.1023C164.154 61.1619 163.732 61.2131 163.408 61.2557C162.624 61.358 161.891 61.5241 161.21 61.7543C160.536 61.9759 159.991 62.3125 159.573 62.7642C159.164 63.2074 158.96 63.8125 158.96 64.5795C158.96 65.6278 159.347 66.4205 160.123 66.9574C160.907 67.4858 161.9 67.75 163.102 67.75ZM180.165 43.8182V70H177.148V43.8182H180.165Z" fill="black"/>
<path d="M70.7386 105.409C68.9659 105.409 67.4105 104.987 66.0724 104.143C64.7429 103.3 63.7031 102.119 62.9531 100.602C62.2116 99.0852 61.8409 97.3125 61.8409 95.2841C61.8409 93.2386 62.2116 91.4531 62.9531 89.9276C63.7031 88.402 64.7429 87.2173 66.0724 86.3736C67.4105 85.5298 68.9659 85.108 70.7386 85.108C72.5114 85.108 74.0625 85.5298 75.392 86.3736C76.7301 87.2173 77.7699 88.402 78.5114 89.9276C79.2614 91.4531 79.6364 93.2386 79.6364 95.2841C79.6364 97.3125 79.2614 99.0852 78.5114 100.602C77.7699 102.119 76.7301 103.3 75.392 104.143C74.0625 104.987 72.5114 105.409 70.7386 105.409ZM70.7386 102.699C72.0852 102.699 73.1932 102.354 74.0625 101.663C74.9318 100.973 75.5753 100.065 75.9929 98.9403C76.4105 97.8153 76.6193 96.5966 76.6193 95.2841C76.6193 93.9716 76.4105 92.7486 75.9929 91.6151C75.5753 90.4815 74.9318 89.5653 74.0625 88.8665C73.1932 88.1676 72.0852 87.8182 70.7386 87.8182C69.392 87.8182 68.2841 88.1676 67.4148 88.8665C66.5455 89.5653 65.902 90.4815 65.4844 91.6151C65.0668 92.7486 64.858 93.9716 64.858 95.2841C64.858 96.5966 65.0668 97.8153 65.4844 98.9403C65.902 100.065 66.5455 100.973 67.4148 101.663C68.2841 102.354 69.392 102.699 70.7386 102.699ZM84.2418 105V85.3636H87.1566V88.4318H87.4123C87.8214 87.3835 88.4819 86.5696 89.3938 85.9901C90.3058 85.402 91.4009 85.108 92.6793 85.108C93.9748 85.108 95.0529 85.402 95.9137 85.9901C96.783 86.5696 97.4606 87.3835 97.9464 88.4318H98.1509C98.6538 87.4176 99.408 86.6122 100.414 86.0156C101.419 85.4105 102.625 85.108 104.032 85.108C105.787 85.108 107.223 85.6577 108.34 86.7571C109.456 87.848 110.015 89.5483 110.015 91.858V105H106.998V91.858C106.998 90.4091 106.601 89.3736 105.809 88.7514C105.016 88.1293 104.083 87.8182 103.009 87.8182C101.628 87.8182 100.559 88.2358 99.8001 89.071C99.0415 89.8977 98.6623 90.946 98.6623 92.2159V105H95.5941V91.5511C95.5941 90.4347 95.2319 89.5355 94.5075 88.8537C93.783 88.1634 92.8498 87.8182 91.7077 87.8182C90.9237 87.8182 90.1907 88.027 89.5089 88.4446C88.8356 88.8622 88.2901 89.4418 87.8725 90.1832C87.4634 90.9162 87.2589 91.7642 87.2589 92.7273V105H84.2418ZM121.309 105.46C120.065 105.46 118.936 105.226 117.922 104.757C116.907 104.28 116.102 103.594 115.505 102.699C114.909 101.795 114.61 100.705 114.61 99.4261C114.61 98.3011 114.832 97.3892 115.275 96.6903C115.718 95.983 116.311 95.429 117.052 95.0284C117.794 94.6278 118.612 94.3295 119.507 94.1335C120.41 93.929 121.318 93.767 122.23 93.6477C123.423 93.4943 124.39 93.3793 125.132 93.3026C125.882 93.2173 126.427 93.0767 126.768 92.8807C127.118 92.6847 127.292 92.3437 127.292 91.858V91.7557C127.292 90.4943 126.947 89.5142 126.257 88.8153C125.575 88.1165 124.539 87.767 123.15 87.767C121.71 87.767 120.581 88.0824 119.762 88.7131C118.944 89.3437 118.369 90.017 118.037 90.733L115.173 89.7102C115.684 88.517 116.366 87.5881 117.218 86.9233C118.079 86.25 119.017 85.7812 120.031 85.517C121.054 85.2443 122.059 85.108 123.048 85.108C123.679 85.108 124.403 85.1847 125.221 85.3381C126.048 85.483 126.845 85.7855 127.612 86.2457C128.387 86.706 129.031 87.4006 129.542 88.3295C130.054 89.2585 130.309 90.5028 130.309 92.0625V105H127.292V102.341H127.139C126.934 102.767 126.593 103.223 126.116 103.709C125.639 104.195 125.004 104.608 124.211 104.949C123.419 105.29 122.451 105.46 121.309 105.46ZM121.77 102.75C122.963 102.75 123.968 102.516 124.787 102.047C125.613 101.578 126.235 100.973 126.653 100.232C127.079 99.4901 127.292 98.7102 127.292 97.892V95.1307C127.164 95.2841 126.883 95.4247 126.449 95.5526C126.022 95.6719 125.528 95.7784 124.966 95.8722C124.412 95.9574 123.87 96.0341 123.342 96.1023C122.822 96.1619 122.4 96.2131 122.076 96.2557C121.292 96.358 120.559 96.5241 119.877 96.7543C119.204 96.9759 118.659 97.3125 118.241 97.7642C117.832 98.2074 117.627 98.8125 117.627 99.5795C117.627 100.628 118.015 101.42 118.791 101.957C119.575 102.486 120.568 102.75 121.77 102.75ZM135.816 105V85.3636H138.833V105H135.816ZM137.35 82.0909C136.762 82.0909 136.255 81.8906 135.829 81.4901C135.411 81.0895 135.202 80.608 135.202 80.0455C135.202 79.483 135.411 79.0014 135.829 78.6009C136.255 78.2003 136.762 78 137.35 78C137.938 78 138.441 78.2003 138.859 78.6009C139.285 79.0014 139.498 79.483 139.498 80.0455C139.498 80.608 139.285 81.0895 138.859 81.4901C138.441 81.8906 137.938 82.0909 137.35 82.0909ZM147.376 93.1875V105H144.359V85.3636H147.274V88.4318H147.529C147.99 87.4347 148.689 86.6335 149.626 86.0284C150.564 85.4148 151.774 85.108 153.257 85.108C154.586 85.108 155.75 85.3807 156.747 85.9261C157.744 86.4631 158.52 87.2812 159.074 88.3807C159.627 89.4716 159.904 90.8523 159.904 92.5227V105H156.887V92.7273C156.887 91.1847 156.487 89.983 155.686 89.1222C154.885 88.2528 153.785 87.8182 152.387 87.8182C151.424 87.8182 150.564 88.027 149.805 88.4446C149.055 88.8622 148.463 89.4716 148.028 90.2727C147.593 91.0739 147.376 92.0455 147.376 93.1875Z" fill="black"/>
<g filter="url(#filter0_d_1_14)">
<path d="M72.5 70H56.3409V17.6364H73.2159C78.2955 17.6364 82.642 18.6847 86.2557 20.7812C89.8693 22.8608 92.6392 25.8523 94.5653 29.7557C96.4915 33.642 97.4545 38.2955 97.4545 43.7159C97.4545 49.1705 96.483 53.8665 94.5398 57.804C92.5966 61.7244 89.767 64.7415 86.0511 66.8551C82.3352 68.9517 77.8182 70 72.5 70ZM62.6818 64.375H72.0909C76.4205 64.375 80.0085 63.5398 82.8551 61.8693C85.7017 60.1989 87.8239 57.821 89.2216 54.7358C90.6193 51.6506 91.3182 47.9773 91.3182 43.7159C91.3182 39.4886 90.6278 35.8494 89.2472 32.7983C87.8665 29.7301 85.804 27.3778 83.0597 25.7415C80.3153 24.0881 76.8977 23.2614 72.8068 23.2614H62.6818V64.375Z" fill="black"/>
</g>
<g filter="url(#filter1_d_1_14)">
<path d="M37.5 105H53.6591V52.6364H36.7841C31.7045 52.6364 27.358 53.6847 23.7443 55.7812C20.1307 57.8608 17.3608 60.8523 15.4347 64.7557C13.5085 68.642 12.5455 73.2955 12.5455 78.7159C12.5455 84.1705 13.517 88.8665 15.4602 92.804C17.4034 96.7244 20.233 99.7415 23.9489 101.855C27.6648 103.952 32.1818 105 37.5 105ZM47.3182 99.375H37.9091C33.5795 99.375 29.9915 98.5398 27.1449 96.8693C24.2983 95.1989 22.1761 92.821 20.7784 89.7358C19.3807 86.6506 18.6818 82.9773 18.6818 78.7159C18.6818 74.4886 19.3722 70.8494 20.7528 67.7983C22.1335 64.7301 24.196 62.3778 26.9403 60.7415C29.6847 59.0881 33.1023 58.2614 37.1932 58.2614H47.3182V99.375Z" fill="black"/>
</g>
<defs>
<filter id="filter0_d_1_14" x="52.3409" y="17.6364" width="49.1136" height="60.3636" filterUnits="userSpaceOnUse" color-interpolation-filters="sRGB">
<feFlood flood-opacity="0" result="BackgroundImageFix"/>
<feColorMatrix in="SourceAlpha" type="matrix" values="0 0 0 0 0 0 0 0 0 0 0 0 0 0 0 0 0 0 127 0" result="hardAlpha"/>
<feOffset dy="4"/>
<feGaussianBlur stdDeviation="2"/>
<feComposite in2="hardAlpha" operator="out"/>
<feColorMatrix type="matrix" values="0 0 0 0 0 0 0 0 0 0 0 0 0 0 0 0 0 0 0.25 0"/>
<feBlend mode="normal" in2="BackgroundImageFix" result="effect1_dropShadow_1_14"/>
<feBlend mode="normal" in="SourceGraphic" in2="effect1_dropShadow_1_14" result="shape"/>
</filter>
<filter id="filter1_d_1_14" x="8.54547" y="52.6364" width="49.1136" height="60.3636" filterUnits="userSpaceOnUse" color-interpolation-filters="sRGB">
<feFlood flood-opacity="0" result="BackgroundImageFix"/>
<feColorMatrix in="SourceAlpha" type="matrix" values="0 0 0 0 0 0 0 0 0 0 0 0 0 0 0 0 0 0 127 0" result="hardAlpha"/>
<feOffset dy="4"/>
<feGaussianBlur stdDeviation="2"/>
<feComposite in2="hardAlpha" operator="out"/>
<feColorMatrix type="matrix" values="0 0 0 0 0 0 0 0 0 0 0 0 0 0 0 0 0 0 0.25 0"/>
<feBlend mode="normal" in2="BackgroundImageFix" result="effect1_dropShadow_1_14"/>
<feBlend mode="normal" in="SourceGraphic" in2="effect1_dropShadow_1_14" result="shape"/>
</filter>
</defs>
</svg>
